<svg xmlns="http://www.w3.org/2000/svg" xmlns:xlink="http://www.w3.org/1999/xlink" version="1.1" x="0px" y="0px" viewBox="0 0 24 30" style="enable-background:new 0 0 24 24;" xml:space="preserve">
  <polygon fill="#FFFFFF" points="19,8 18,8 17,8 16,8 15,8 15,7 14,7 14,6 14,5 13,5 13,4 12,4 11,4 11,5 10,5 10,6 10,7 9,7 9,8 8,8 7,8 6,8 5,8 4,8 4,9 4,10 5,10 5,11 6,11 6,12 7,12 7,13 7,14 6,14 6,15 6,16 5,16 5,17 5,18 4,18 4,19 4,20 5,20 6,20 7,20 7,19 8,19 9,19 9,18 10,18 11,18 11,17 12,17 13,17 13,18 14,18 15,18 15,19 16,19 17,19 17,20 18,20 19,20 20,20 20,19 20,18 19,18 19,17 19,16 18,16 18,15 18,14 17,14 17,13 17,12 18,12 18,11 19,11 19,10 20,10 20,9 20,8"/>
</svg>