<?xml version="1.0" encoding="UTF-8" standalone="no"?>
<svg
   version="1.1"
   viewBox="-5 -10 110 110"
   id="svg1"
   sodipodi:docname="wifi.svg"
   width="110"
   height="110"
   inkscape:version="1.4 (86a8ad7, 2024-10-11)"
   xmlns:inkscape="http://www.inkscape.org/namespaces/inkscape"
   xmlns:sodipodi="http://sodipodi.sourceforge.net/DTD/sodipodi-0.dtd"
   xmlns="http://www.w3.org/2000/svg"
   xmlns:svg="http://www.w3.org/2000/svg">
  <defs
     id="defs1" />
  <sodipodi:namedview
     id="namedview1"
     pagecolor="#000000"
     bordercolor="#000000"
     borderopacity="0.25"
     inkscape:showpageshadow="2"
     inkscape:pageopacity="0.0"
     inkscape:pagecheckerboard="0"
     inkscape:deskcolor="#d1d1d1"
     inkscape:zoom="6.037037"
     inkscape:cx="55.076687"
     inkscape:cy="67.5"
     inkscape:window-width="2560"
     inkscape:window-height="1017"
     inkscape:window-x="-8"
     inkscape:window-y="-8"
     inkscape:window-maximized="1"
     inkscape:current-layer="svg1" />
  <path
     d="M 25,10.668 H 75 V 19 h 12.5 v 8.332 h 8.332 V 19 H 87.5 V 10.668 H 75 V 2.3321 H 25 Z M 12.5,19 H 25 V 10.668 H 12.5 Z m 0,0 H 4.168 v 8.332 H 12.5 Z M 70.832,31.5 H 29.168 v -8.332 h 41.664 z m 8.3359,8.332 H 70.832 V 31.5 h 8.3359 z m 0,0 h 8.332 v 8.3359 h -8.332 z m -58.336,0 h 8.3359 V 31.5 h -8.3359 z m 0,0 h -8.332 v 8.3359 h 8.332 z m 16.668,8.3359 h 25 v 8.332 h 8.332 v -8.332 h -8.332 V 39.832 h -25 z m 0,0 h -8.332 v 8.332 h 8.332 z m 18.75,16.664 h -12.5 v -8.332 h 12.5 z m 0,12.5 v -12.5 h 8.332 v 12.5 z m -12.5,0 h 12.5 v 8.3359 h -12.5 z m 0,0 v -12.5 h -8.332 v 12.5 z"
     fill="#ffffff"
     fill-rule="evenodd"
     id="path1" />
</svg>
